<?xml version="1.0" encoding="UTF-8" standalone="no"?>
<svg
   xmlns:dc="http://purl.org/dc/elements/1.1/"
   xmlns:cc="http://creativecommons.org/ns#"
   xmlns:rdf="http://www.w3.org/1999/02/22-rdf-syntax-ns#"
   xmlns:svg="http://www.w3.org/2000/svg"
   xmlns="http://www.w3.org/2000/svg"
   xmlns:sodipodi="http://sodipodi.sourceforge.net/DTD/sodipodi-0.dtd"
   xmlns:inkscape="http://www.inkscape.org/namespaces/inkscape"
   version="1.1"
   viewBox="0 0 470 470"
   enable-background="new 0 0 470 470"
   id="svg2"
   inkscape:version="0.91 r13725"
   sodipodi:docname="search_result.svg">
  <metadata
     id="metadata34">
    <rdf:RDF>
      <cc:Work
         rdf:about="">
        <dc:format>image/svg+xml</dc:format>
        <dc:type
           rdf:resource="http://purl.org/dc/dcmitype/StillImage" />
      </cc:Work>
    </rdf:RDF>
  </metadata>
  <defs
     id="defs32" />
  <sodipodi:namedview
     pagecolor="#ffffff"
     bordercolor="#666666"
     borderopacity="1"
     objecttolerance="10"
     gridtolerance="10"
     guidetolerance="10"
     inkscape:pageopacity="0"
     inkscape:pageshadow="2"
     inkscape:window-width="1536"
     inkscape:window-height="801"
     id="namedview30"
     showgrid="false"
     inkscape:zoom="0.50212766"
     inkscape:cx="235"
     inkscape:cy="235"
     inkscape:window-x="-8"
     inkscape:window-y="-8"
     inkscape:window-maximized="1"
     inkscape:current-layer="svg2" />
  <g
     id="g4"
     style="fill:#000000;fill-opacity:0.5411765">
    <path
       d="m441.25,0h-412.5c-4.142,0-7.5,3.358-7.5,7.5v120c0,4.142 3.358,7.5 7.5,7.5h412.5c4.142,0 7.5-3.358 7.5-7.5v-120c0-4.142-3.358-7.5-7.5-7.5zm-405,15h277.5v105h-277.5v-105zm397.5,105h-105v-105h105v105z"
       id="path6"
       style="fill:#000000;fill-opacity:0.5411765" />
    <path
       d="m148.75,370h131.25c4.142,0 7.5-3.358 7.5-7.5s-3.358-7.5-7.5-7.5h-131.25c-4.142,0-7.5,3.358-7.5,7.5s3.358,7.5 7.5,7.5z"
       id="path8"
       style="fill:#000000;fill-opacity:0.5411765" />
    <path
       d="m411.25,315h-262.5c-4.142,0-7.5,3.358-7.5,7.5s3.358,7.5 7.5,7.5h262.5c4.142,0 7.5-3.358 7.5-7.5s-3.358-7.5-7.5-7.5z"
       id="path10"
       style="fill:#000000;fill-opacity:0.5411765" />
    <path
       d="m148.75,250h131.25c4.142,0 7.5-3.358 7.5-7.5s-3.358-7.5-7.5-7.5h-131.25c-4.142,0-7.5,3.358-7.5,7.5s3.358,7.5 7.5,7.5z"
       id="path12"
       style="fill:#000000;fill-opacity:0.5411765" />
    <path
       d="m148.75,210h262.5c4.142,0 7.5-3.358 7.5-7.5s-3.358-7.5-7.5-7.5h-262.5c-4.142,0-7.5,3.358-7.5,7.5s3.358,7.5 7.5,7.5z"
       id="path14"
       style="fill:#000000;fill-opacity:0.5411765" />
    <path
       d="m441.25,155h-412.5c-4.142,0-7.5,3.358-7.5,7.5v120c0,4.142 3.358,7.5 7.5,7.5h412.5c4.142,0 7.5-3.358 7.5-7.5v-120c0-4.142-3.358-7.5-7.5-7.5zm-7.5,120h-397.5v-105h397.5v105z"
       id="path16"
       style="fill:#000000;fill-opacity:0.5411765" />
    <path
       d="m352.723,82.3c5.787,5.787 13.48,8.974 21.664,8.974 5.621,0 11.01-1.504 15.71-4.321l15.85,15.85c1.464,1.464 3.384,2.197 5.303,2.197s3.839-0.732 5.303-2.197c2.929-2.929 2.929-7.678 0-10.606l-15.85-15.85c2.817-4.699 4.321-10.089 4.321-15.71 0-8.184-3.187-15.877-8.974-21.664-5.786-5.786-13.48-8.973-21.663-8.973-8.184,0-15.877,3.187-21.664,8.973-11.945,11.945-11.945,31.382 0,43.327zm10.607-32.72c2.954-2.953 6.88-4.58 11.057-4.58s8.104,1.626 11.057,4.58c2.954,2.954 4.58,6.88 4.58,11.057s-1.626,8.103-4.58,11.057-6.88,4.58-11.057,4.58-8.104-1.626-11.057-4.58c-6.097-6.097-6.097-16.017 0-22.114z"
       id="path18"
       style="fill:#000000;fill-opacity:0.5411765" />
    <path
       d="m118.75,305h-60c-4.142,0-7.5,3.358-7.5,7.5v60c0,4.142 3.358,7.5 7.5,7.5h60c4.142,0 7.5-3.358 7.5-7.5v-60c0-4.142-3.358-7.5-7.5-7.5zm-7.5,60h-45v-45h45v45z"
       id="path20"
       style="fill:#000000;fill-opacity:0.5411765" />
    <path
       d="M280,445H148.75c-4.142,0-7.5,3.358-7.5,7.5s3.358,7.5,7.5,7.5H280c4.142,0,7.5-3.358,7.5-7.5S284.142,445,280,445z"
       id="path22"
       style="fill:#000000;fill-opacity:0.5411765" />
    <path
       d="m411.25,405h-262.5c-4.142,0-7.5,3.358-7.5,7.5s3.358,7.5 7.5,7.5h262.5c4.142,0 7.5-3.358 7.5-7.5s-3.358-7.5-7.5-7.5z"
       id="path24"
       style="fill:#000000;fill-opacity:0.5411765" />
    <path
       d="m118.75,395h-60c-4.142,0-7.5,3.358-7.5,7.5v60c0,4.142 3.358,7.5 7.5,7.5h60c4.142,0 7.5-3.358 7.5-7.5v-60c0-4.142-3.358-7.5-7.5-7.5zm-7.5,60h-45v-45h45v45z"
       id="path26"
       style="fill:#000000;fill-opacity:0.5411765" />
    <path
       d="m58.75,260h60c4.142,0 7.5-3.358 7.5-7.5v-60c0-4.142-3.358-7.5-7.5-7.5h-60c-4.142,0-7.5,3.358-7.5,7.5v60c0,4.142 3.358,7.5 7.5,7.5zm7.5-60h45v45h-45v-45z"
       id="path28"
       style="fill:#000000;fill-opacity:0.5411765" />
  </g>
</svg>
