<?xml version="1.0" encoding="iso-8859-1"?>
<!-- Generator: Adobe Illustrator 19.0.0, SVG Export Plug-In . SVG Version: 6.00 Build 0)  -->
<svg version="1.1" id="Capa_1" xmlns="http://www.w3.org/2000/svg" xmlns:xlink="http://www.w3.org/1999/xlink" x="0px" y="0px"
	 viewBox="0 0 480.018 480.018" style="enable-background:new 0 0 480.018 480.018;" xml:space="preserve">
<g>
	<g>
		<path d="M456.009,104.018h-2.064c17.697-25.332,11.507-60.214-13.825-77.911c-21.597-15.087-50.793-13.065-70.103,4.855
			C356.209,3.317,322.604-7.899,294.96,5.909c-16.458,8.22-27.823,24.006-30.399,42.221c-28.657,1.884-50.361,26.642-48.477,55.299
			c1.798,27.35,24.516,48.609,51.925,48.589h188c13.255,0,24-10.745,24-24S469.264,104.018,456.009,104.018z M431.291,39.34
			c18.005,12.801,22.223,37.774,9.422,55.778c-2.419,3.403-5.356,6.406-8.705,8.9h-0.552c-4.013-27.541-27.616-47.973-55.448-48
			c-0.013-2.298-0.168-4.593-0.464-6.872c-0.016-0.128-0.008-0.256-0.032-0.384C388.314,30.758,413.287,26.539,431.291,39.34z
			 M456.009,136.018h-188c-19.882,0-36-16.118-36-36s16.118-36,36-36h12v-8c0.041-22.091,17.983-39.967,40.074-39.926
			c18.862,0.035,35.137,13.242,39.054,31.694l0.08,0.424c0.52,2.57,0.785,5.186,0.792,7.808v16h16c22.08,0.026,39.974,17.92,40,40v8
			h40c4.418,0,8,3.582,8,8S460.427,136.018,456.009,136.018z"/>
	</g>
</g>
<g>
	<g>
		<path d="M480.009,432.018v-48h-48v-16h32v-112h-32v-32h-48v32h-120v-32h-48v32h-32v112h32v16h-48v48h48v32h-64v-272h20.488
			c13.255-0.012,23.991-10.766,23.979-24.021c-0.001-1.575-0.158-3.147-0.467-4.691L170.993,38.138
			c-2.985-14.903-17.486-24.564-32.389-21.579c-10.888,2.181-19.398,10.691-21.579,21.579l-19.032,95.2L81.345,16.818
			c-0.379-2.598-1.575-5.008-3.416-6.88c-7.57-8.45-19.331-11.783-30.208-8.56C38.17,4.493,31.227,12.774,29.825,22.722
			L2.697,212.626c-1.873,13.122,7.245,25.278,20.367,27.151c1.124,0.16,2.258,0.241,3.393,0.241h21.552v96.64
			c-27.519,3.989-47.95,27.554-48,55.36v88h480v-16h-48v-32H480.009z M26.457,224.018c-4.418-0.004-7.996-3.59-7.992-8.008
			c0-0.375,0.027-0.749,0.08-1.12l27.12-189.896c0.55-3.936,3.294-7.214,7.072-8.448c4.685-1.257,9.68,0.202,12.952,3.784
			l27.792,194.56c0.623,4.374-2.418,8.425-6.792,9.048c-0.374,0.053-0.751,0.08-1.128,0.08H64.009v-56h-16v56H26.457z
			 M112.009,464.018h-96v-72c0-22.091,17.909-40,40-40s40,17.909,40,40v24h16c13.255,0,24,10.745,24,24
			S125.264,464.018,112.009,464.018z M136.009,408.226c-6.884-5.293-15.317-8.177-24-8.208v-8c-0.05-27.806-20.481-51.371-48-55.36
			v-96.64h21.56c13.255,0,24-10.744,24.001-23.999c0-1.135-0.08-2.269-0.241-3.393l-3.2-22.616c2.963,1.298,6.158,1.981,9.392,2.008
			h20.488V408.226z M136.009,176.018h-20.488c-4.418,0.001-8.001-3.58-8.002-7.998c0-0.538,0.054-1.075,0.162-1.602l25.032-125.144
			c1.249-6.239,7.318-10.284,13.557-9.035c4.559,0.912,8.123,4.476,9.035,9.035l25.032,125.144c0.884,4.329-1.909,8.555-6.238,9.438
			c-0.527,0.108-1.064,0.162-1.602,0.162h-20.488v-48h-16V176.018z M400.009,240.018h16v16h-16V240.018z M232.009,240.018h16v16h-16
			V240.018z M200.009,352.018v-80h248v80H200.009z M416.009,368.018v16h-16v-16H416.009z M384.009,368.018v16h-120v-16H384.009z
			 M248.009,368.018v16h-16v-16H248.009z M248.009,464.018h-16v-32h16V464.018z M384.009,464.018h-120v-32h120V464.018z
			 M416.009,464.018h-16v-32h16V464.018z M184.009,416.018v-16h280v16H184.009z"/>
	</g>
</g>
<g>
</g>
<g>
</g>
<g>
</g>
<g>
</g>
<g>
</g>
<g>
</g>
<g>
</g>
<g>
</g>
<g>
</g>
<g>
</g>
<g>
</g>
<g>
</g>
<g>
</g>
<g>
</g>
<g>
</g>
</svg>
