<?xml version="1.0" encoding="iso-8859-1"?>
<!-- Generator: Adobe Illustrator 19.0.0, SVG Export Plug-In . SVG Version: 6.00 Build 0)  -->
<svg version="1.1" id="Capa_1" xmlns="http://www.w3.org/2000/svg" xmlns:xlink="http://www.w3.org/1999/xlink" x="0px" y="0px"
	 viewBox="0 0 56.001 56.001" style="enable-background:new 0 0 56.001 56.001;" xml:space="preserve">
<g>
	<g>
		<path d="M55.46,19.113l-27-14c-0.287-0.15-0.633-0.15-0.92,0l-27,14c-0.409,0.212-0.621,0.677-0.512,1.125
			C0.138,20.685,0.539,21.001,1,21.001h8v4c0,0.553,0.447,1,1,1h36c0.553,0,1-0.447,1-1v-4h8c0.461,0,0.862-0.315,0.972-0.763
			C56.081,19.79,55.869,19.325,55.46,19.113z M46,19.001c-0.553,0-1,0.447-1,1v4H11v-4c0-0.553-0.447-1-1-1H5.101L28,7.127
			L50.9,19.001H46z"/>
		<path d="M16,45.001c0.553,0,1-0.447,1-1v-16c0-0.553-0.447-1-1-1h-5c-0.553,0-1,0.447-1,1v16c0,0.553,0.447,1,1,1H16z M12,29.001
			h3v14h-3V29.001z"/>
		<path d="M45,45.001c0.553,0,1-0.447,1-1v-16c0-0.553-0.447-1-1-1h-5c-0.553,0-1,0.447-1,1v16c0,0.553,0.447,1,1,1H45z M41,29.001
			h3v14h-3V29.001z"/>
		<path d="M50,46.001H5c-0.553,0-1,0.447-1,1v3c0,0.553,0.447,1,1,1h45c0.553,0,1-0.447,1-1v-3C51,46.448,50.553,46.001,50,46.001z
			 M49,49.001H6v-1h43V49.001z"/>
		<path d="M28.151,29.001H27.85c-3.304,0-5.992,2.693-5.992,6.004v1.663c0,0.715-0.482,2.197-0.787,2.964
			c-0.122,0.308-0.084,0.656,0.103,0.931s0.496,0.438,0.827,0.438h3c0,1.654,1.346,3,3,3s3-1.346,3-3h3
			c0.332,0,0.643-0.165,0.828-0.44c0.187-0.275,0.224-0.625,0.1-0.933c-0.326-0.812-0.785-2.223-0.785-2.821v-1.81
			C34.143,31.69,31.454,29.001,28.151,29.001z M28,42.001c-0.552,0-1-0.448-1-1h2C29,41.552,28.552,42.001,28,42.001z
			 M23.406,39.001c0.229-0.744,0.451-1.646,0.451-2.333v-1.663c0-2.208,1.791-4.004,3.992-4.004h0.301
			c2.201,0,3.992,1.792,3.992,3.995v1.81c0,0.623,0.217,1.477,0.441,2.194L23.406,39.001L23.406,39.001z"/>
	</g>
</g>
<g>
</g>
<g>
</g>
<g>
</g>
<g>
</g>
<g>
</g>
<g>
</g>
<g>
</g>
<g>
</g>
<g>
</g>
<g>
</g>
<g>
</g>
<g>
</g>
<g>
</g>
<g>
</g>
<g>
</g>
</svg>
